:FULLY-SPECIFIED
:FORCE-ALL-JOINTS-BE-3DOF
:DEGREES
453
root 10.7883 17.446 27.6311 5.3554 0.874276 1.44003
lfemur -19.0824 3.69164 -27.5134
ltibia 26.5769 -0 0
lfoot -13.0441 4.8984 0.00308074
ltoes 0.354659 -0 0
rfemur -20.3806 -1.91373 18.1905
rtibia 64.4222 -0 0
rfoot -9.5207 -8.31922 0.00493812
rtoes -19.0133 0 0
lowerback -5.14201 -1.2159 -2.13441
upperback -1.75242 -1.53576 1.58559
thorax 1.185 -0.764611 2.73205
lowerneck -20.6446 -3.84476 -11.5675
upperneck 24.3311 -4.55847 10.4999
head 11.9335 -1.80138 5.17998
lclavicle 4.47233e-16 -7.68635e-15 0
lhumerus -25.5576 -12.7596 89.7375
lradius 21.0012 -0 0
lwrist -4.03246 0 0
lhand -11.5851 -23.7087 0.00169138
lfingers 7.12502 0 0
lthumb 14.4567 5.76623 0.00129019
rclavicle 4.47233e-16 -7.68635e-15 0
rhumerus -45.6545 10.7692 -88.4224
rradius 34.6847 -0 0
rwrist -13.3764 0 0
rhand -32.9713 -26.8938 -0.0266414
rfingers 7.12502 0 0
rthumb -6.1864 -56.7803 -0.0260282
454
root 10.7954 17.4384 27.745 5.21404 1.08193 1.51877
lfemur -18.4542 3.66706 -27.5808
ltibia 26.5813 -0 0
lfoot -13.4595 4.79217 0.00346584
ltoes 0.647719 -0 0
rfemur -21.3267 -1.77565 18.1555
rtibia 64.0745 -0 0
rfoot -10.7329 -8.37758 0.00555559
rtoes -18.6607 0 0
lowerback -5.0673 -1.42722 -2.27378
upperback -1.6044 -1.81273 1.63833
thorax 1.31985 -0.906777 2.84642
lowerneck -20.8469 -3.73587 -11.4407
upperneck 24.3704 -4.41986 10.4802
head 11.9659 -1.72508 5.17612
lclavicle -4.3795e-15 -1.03368e-14 0
lhumerus -24.547 -13.5376 89.5647
lradius 21.2735 -0 0
lwrist -3.58439 0 0
lhand -11.8582 -23.7973 0.0019028
lfingers 7.12502 0 0
lthumb 14.1935 5.69602 0.00145146
rclavicle -4.3795e-15 -1.03368e-14 0
rhumerus -45.5816 10.8736 -88.3134
rradius 34.9992 -0 0
rwrist -13.8591 0 0
rhand -32.556 -27.813 -0.0299723
rfingers 7.12502 0 0
rthumb -5.78552 -57.7105 -0.0292825
455
root 10.8025 17.4308 27.8589 5.07296 1.28977 1.59701
lfemur -17.8259 3.64322 -27.6485
ltibia 26.5856 -0 0
lfoot -13.8749 4.68595 0.00308074
ltoes 0.94078 -0 0
rfemur -22.2728 -1.63817 18.1182
rtibia 63.7268 -0 0
rfoot -11.9451 -8.43595 0.00493812
rtoes -18.3081 0 0
lowerback -4.99207 -1.63836 -2.41344
upperback -1.45662 -2.08984 1.69037
thorax 1.45442 -1.04921 2.96045
lowerneck -21.0489 -3.62653 -11.3143
upperneck 24.4097 -4.28124 10.4606
head 11.9984 -1.64878 5.1723
lclavicle -9.20623e-15 -1.29873e-14 0
lhumerus -23.5306 -14.3126 89.3773
lradius 21.5458 -0 0
lwrist -3.13632 0 0
lhand -12.1314 -23.886 0.00169138
lfingers 7.12502 0 0
lthumb 13.9303 5.62582 0.00129019
rclavicle -9.20623e-15 -1.29873e-14 0
rhumerus -45.5085 10.9778 -88.2042
rradius 35.3137 -0 0
rwrist -14.3418 0 0
rhand -32.1408 -28.7322 -0.0266414
rfingers 7.12502 0 0
rthumb -5.38463 -58.6407 -0.0260282
456
root 10.8095 17.4233 27.9728 4.93216 1.49781 1.67474
lfemur -17.1976 3.62012 -27.7165
ltibia 26.59 -0 0
lfoot -14.2904 4.57973 0.00192543
ltoes 1.23384 -0 0
rfemur -23.2189 -1.50133 18.0787
rtibia 63.3791 -0 0
rfoot -13.1572 -8.4943 0.00308598
rtoes -17.9555 0 0
lowerback -4.91632 -1.84931 -2.55339
upperback -1.30905 -2.36709 1.74171
thorax 1.58871 -1.19191 3.07415
lowerneck -21.2506 -3.51674 -11.1883
upperneck 24.4489 -4.1426 10.441
head 12.0308 -1.57248 5.16852
lclavicle -1.4033e-14 -1.56377e-14 0
lhumerus -22.508 -15.0842 89.175
lradius 21.8182 -0 0
lwrist -2.68825 0 0
lhand -12.4046 -23.9747 0.00105711
lfingers 7.12502 0 0
lthumb 13.667 5.55561 0.000806363
rclavicle -1.4033e-14 -1.56377e-14 0
rhumerus -45.4351 11.0819 -88.0949
rradius 35.6282 -0 0
rwrist -14.8244 0 0
rhand -31.7257 -29.6514 -0.0166496
rfingers 7.12502 0 0
rthumb -4.98384 -59.5708 -0.0162664
457
root 10.8166 17.4157 28.0867 4.79162 1.70604 1.75197
lfemur -16.5693 3.59777 -27.7847
ltibia 26.5944 0 0
lfoot -14.7058 4.47352 0
ltoes 1.5269 0 0
rfemur -24.1651 -1.36515 18.0369
rtibia 63.0314 0 0
rfoot -14.3694 -8.55259 0
rtoes -17.6029 0 0
lowerback -4.84004 -2.06008 -2.69364
upperback -1.16171 -2.64446 1.79234
thorax 1.72272 -1.33488 3.18753
lowerneck -21.4521 -3.40652 -11.0627
upperneck 24.4881 -4.00395 10.4216
head 12.0632 -1.49618 5.16479
lclavicle -1.88597e-14 -1.82882e-14 0
lhumerus -21.4787 -15.8522 88.9576
lradius 22.0905 0 0
lwrist -2.24018 0 0
lhand -12.6778 -24.0634 0
lfingers 7.12502 0 0
lthumb 13.4038 5.48541 0
rclavicle -1.88597e-14 -1.82882e-14 0
rhumerus -45.3615 11.1858 -87.9854
rradius 35.9427 0 0
rwrist -15.3071 0 0
rhand -31.3108 -30.5705 0
rfingers 7.12502 0 0
rthumb -4.58327 -60.5009 0
458
root 10.8246 17.4113 28.2046 4.73588 1.939 1.92247
lfemur -16.0273 3.49285 -27.9416
ltibia 26.5679 -0 0
lfoot -15.103 4.36172 0.00193811
ltoes 2.03828 -0 0
rfemur -25.0033 -1.27625 17.8049
rtibia 62.1243 -0 0
rfoot -14.9159 -8.54092 -0.00027828
rtoes -17.5926 0 0
lowerback -4.82255 -2.22666 -2.83706
upperback -1.1121 -2.85944 1.77876
thorax 1.78881 -1.44483 3.2377
lowerneck -21.4462 -3.32784 -11.0086
upperneck 24.5353 -3.8997 10.3718
head 12.064 -1.45125 5.15518
lclavicle -1.28858e-14 -1.29873e-14 0
lhumerus -20.7746 -16.2611 88.6965
lradius 22.5337 -0 0
lwrist -1.68554 0 0
lhand -12.7926 -24.0526 -5.42889e-05
lfingers 7.12502 0 0
lthumb 13.2931 5.50334 -8.66186e-05
rclavicle -1.28858e-14 -1.29873e-14 0
rhumerus -45.5198 11.0991 -87.8338
rradius 36.2928 -0 0
rwrist -15.7986 0 0
rhand -31.9147 -29.3026 -0.0334529
rfingers 7.12502 0 0
rthumb -5.16628 -59.2155 -0.0327412
459
root 10.8325 17.407 28.3226 4.68083 2.17212 2.09277
lfemur -15.485 3.38941 -28.0994
ltibia 26.5414 -0 0
lfoot -15.5003 4.2499 0.00310101
ltoes 2.54966 -0 0
rfemur -25.8417 -1.19076 17.5716
rtibia 61.2172 -0 0
rfoot -15.4624 -8.52925 -0.000445258
rtoes -17.5822 0 0
lowerback -4.80465 -2.39319 -2.98055
upperback -1.06243 -3.07441 1.76499
thorax 1.85481 -1.55483 3.28774
lowerneck -21.4401 -3.24917 -10.9546
upperneck 24.5824 -3.79541 10.322
head 12.0648 -1.40632 5.14558
lclavicle -6.9119e-15 -7.68633e-15 0
lhumerus -20.067 -16.6669 88.4296
lradius 22.9769 -0 0
lwrist -1.13089 0 0
lhand -12.9075 -24.0417 -8.68624e-05
lfingers 7.12502 0 0
lthumb 13.1824 5.52127 -0.00013859
rclavicle -6.9119e-15 -7.68633e-15 0
rhumerus -45.6784 11.0129 -87.682
rradius 36.6429 -0 0
rwrist -16.2901 0 0
rhand -32.5192 -28.0344 -0.0535326
rfingers 7.12502 0 0
rthumb -5.74989 -57.9298 -0.0523939
460
root 10.8404 17.4027 28.4405 4.62646 2.4054 2.26288
lfemur -14.9426 3.28747 -28.2583
ltibia 26.5149 -0 0
lfoot -15.8976 4.13809 0.00348865
ltoes 3.06103 -0 0
rfemur -26.6805 -1.10869 17.3371
rtibia 60.31 -0 0
rfoot -16.0089 -8.51758 -0.000500919
rtoes -17.5719 0 0
lowerback -4.78633 -2.55968 -3.12411
upperback -1.0127 -3.28936 1.75103
thorax 1.92071 -1.66489 3.33765
lowerneck -21.434 -3.17051 -10.9005
upperneck 24.6294 -3.69108 10.2724
head 12.0655 -1.36139 5.13598
lclavicle -9.38e-16 -2.3854e-15 0
lhumerus -19.356 -17.0695 88.1569
lradius 23.4202 -0 0
lwrist -0.57625 0 0
lhand -13.0224 -24.0309 -9.77202e-05
lfingers 7.12502 0 0
lthumb 13.0716 5.5392 -0.000155914
rclavicle -9.38e-16 -2.3854e-15 0
rhumerus -45.8371 10.927 -87.5299
rradius 36.993 -0 0
rwrist -16.7816 0 0
rhand -33.124 -26.766 -0.0602272
rfingers 7.12502 0 0
rthumb -6.33379 -56.644 -0.0589461
461
root 10.8484 17.3983 28.5585 4.57277 2.63884 2.43279
lfemur -14.3999 3.18704 -28.418
ltibia 26.4883 -0 0
lfoot -16.2948 4.02627 0.00310101
ltoes 3.57241 -0 0
rfemur -27.5196 -1.03006 17.1014
rtibia 59.4029 -0 0
rfoot -16.5553 -8.50591 -0.000445258
rtoes -17.5615 0 0
lowerback -4.76758 -2.72612 -3.26775
upperback -0.962911 -3.50431 1.73688
thorax 1.98652 -1.77501 3.38744
lowerneck -21.4279 -3.09185 -10.8465
upperneck 24.6763 -3.58671 10.2228
head 12.0663 -1.31645 5.12637
lclavicle 5.0359e-15 2.91553e-15 0
lhumerus -18.6414 -17.4688 87.8784
lradius 23.8634 -0 0
lwrist -0.0216067 0 0
lhand -13.1372 -24.0201 -8.68624e-05
lfingers 7.12502 0 0
lthumb 12.9609 5.55713 -0.00013859
rclavicle 5.0359e-15 2.91553e-15 0
rhumerus -45.996 10.8416 -87.3777
rradius 37.343 -0 0
rwrist -17.2731 0 0
rhand -33.7289 -25.4977 -0.0535326
rfingers 7.12502 0 0
rthumb -6.91768 -55.3581 -0.0523939
462
root 10.8564 17.394 28.6764 4.51977 2.87244 2.60251
lfemur -13.8569 3.08812 -28.5787
ltibia 26.4618 -0 0
lfoot -16.6921 3.91445 0.00193811
ltoes 4.08379 -0 0
rfemur -28.359 -0.954891 16.8646
rtibia 58.4958 -0 0
rfoot -17.1018 -8.49424 -0.00027828
rtoes -17.5512 0 0
lowerback -4.74842 -2.89251 -3.41145
upperback -0.913053 -3.71924 1.72254
thorax 2.05224 -1.88519 3.43711
lowerneck -21.4216 -3.0132 -10.7924
upperneck 24.7231 -3.4823 10.1734
head 12.0671 -1.27152 5.11677
lclavicle 1.10098e-14 8.21647e-15 0
lhumerus -17.9233 -17.8648 87.5941
lradius 24.3066 -0 0
lwrist 0.533037 0 0
lhand -13.2521 -24.0092 -5.42889e-05
lfingers 7.12502 0 0
lthumb 12.8502 5.57506 -8.66186e-05
rclavicle 1.10098e-14 8.21647e-15 0
rhumerus -46.155 10.7566 -87.2253
rradius 37.6931 -0 0
rwrist -17.7646 0 0
rhand -34.3334 -24.2295 -0.0334529
rfingers 7.12502 0 0
rthumb -7.50129 -54.0724 -0.0327412
463
root 10.8643 17.3896 28.7944 4.46745 3.1062 2.77206
lfemur -13.3138 2.99073 -28.7403
ltibia 26.4353 0 0
lfoot -17.0893 3.80265 0
ltoes 4.59517 0 0
rfemur -29.1987 -0.883199 16.6267
rtibia 57.5887 0 0
rfoot -17.6483 -8.48257 0
rtoes -17.5408 0 0
lowerback -4.72883 -3.05886 -3.55524
upperback -0.863128 -3.93416 1.70801
thorax 2.11787 -1.99542 3.48666
lowerneck -21.4153 -2.93455 -10.7383
upperneck 24.7698 -3.37785 10.124
head 12.0678 -1.22659 5.10717
lclavicle 1.69837e-14 1.35174e-14 0
lhumerus -17.2014 -18.2573 87.3039
lradius 24.7498 0 0
lwrist 1.08768 0 0
lhand -13.3669 -23.9984 0
lfingers 7.12502 0 0
lthumb 12.7395 5.59299 0
rclavicle 1.69837e-14 1.35174e-14 0
rhumerus -46.3143 10.672 -87.0727
rradius 38.0432 0 0
rwrist -18.2561 0 0
rhand -34.9373 -22.9616 0
rfingers 7.12502 0 0
rthumb -8.0843 -52.787 0
464
root 10.8667 17.3908 28.9103 4.38333 3.29844 2.78363
lfemur -12.4401 2.91305 -28.6899
ltibia 25.8328 -0 0
lfoot -17.1566 3.79608 1.92831e-05
ltoes 4.43311 -0 0
rfemur -29.8143 -0.560846 16.5381
rtibia 56.277 -0 0
rfoot -17.9889 -8.78002 0.0044212
rtoes -17.2109 0 0
lowerback -4.7797 -3.21451 -3.62761
upperback -0.663426 -4.13649 1.74166
thorax 2.38031 -2.10561 3.53294
lowerneck -21.6241 -2.91992 -10.6372
upperneck 24.7044 -3.36432 10.1167
head 12.08 -1.20656 5.08818
lclavicle 1.26125e-14 1.08669e-14 0
lhumerus -16.3615 -18.5073 86.913
lradius 25.1675 -0 0
lwrist 1.75605 0 0
lhand -13.5929 -24.1136 0.00113642
lfingers 7.12502 0 0
lthumb 12.5215 5.4906 0.000973796
rclavicle 1.26125e-14 1.08669e-14 0
rhumerus -46.1576 10.6497 -86.9813
rradius 38.1687 -0 0
rwrist -18.5239 0 0
rhand -33.3135 -25.8877 -0.208815
rfingers 7.12502 0 0
rthumb -6.51638 -55.7383 -0.203359
